<svg xmlns="http://www.w3.org/2000/svg" width="315" height="240" viewBox="0 0 315 240">
  <g id="_36" data-name="36" transform="translate(66.794 -3258)">
    <g id="_33" data-name="33" transform="translate(-331.794 -0.188)">
      <g id="Grupo_85023" data-name="Grupo 85023">
        <rect id="Rectángulo_34651" data-name="Rectángulo 34651" width="315" height="170" transform="translate(265 3328.188)" fill="#6b8dff"/>
      </g>
    </g>
    <g id="Grupo_84828" data-name="Grupo 84828" transform="translate(-308.747 2974.498)">
      <g id="Grupo_84586" data-name="Grupo 84586" transform="translate(266.714 283.502)">
        <path id="Trazado_118556" data-name="Trazado 118556" d="M323.051,489.2c-18.838-3.324-37.326-12.075-47.358-26.788-9.978-14.635-10.341-32.781-10.408-49.944-.079-19.835-.009-40.345,8.861-58.506,7.153-14.649,19.578-26.719,32.983-37.242,12.42-9.751,25.991-18.5,41.1-24.445a130.23,130.23,0,0,1,90.1-1.42c28.628,10.315,52.248,31.476,63.564,57.267,5.208,11.867,7.872,24.52,12.729,36.508,7.82,19.3,21.533,38.9,15.79,58.778-6.714,23.236-36.647,34.054-63.2,36.609-11.279,1.085-22.629,1.369-33.926,2.253-10.6.829-20.944,2.646-31.369,4.486a274.3,274.3,0,0,1-41.292,4.261C348.035,491.326,335.461,491.387,323.051,489.2Z" transform="translate(-265.275 -283.502)" fill="#ffd947"/>
      </g>
      <g id="Grupo_84639" data-name="Grupo 84639" transform="translate(259.306 289.926)">
        <g id="Grupo_84600" data-name="Grupo 84600" transform="translate(0 29.394)">
          <g id="Grupo_84598" data-name="Grupo 84598">
            <g id="Grupo_84589" data-name="Grupo 84589">
              <g id="Grupo_84587" data-name="Grupo 84587">
                <rect id="Rectángulo_34683" data-name="Rectángulo 34683" width="47.986" height="44.987" transform="matrix(0.809, 0.588, -0.588, 0.809, 26.472, 0)" fill="#173449"/>
              </g>
              <g id="Grupo_84588" data-name="Grupo 84588" transform="translate(4.197 3.485)">
                <path id="Trazado_118557" data-name="Trazado 118557" d="M296.6,371.562l-33.909-24.678,23.479-31.718,33.909,24.678Z" transform="translate(-262.688 -315.167)" fill="#c6e6f4"/>
              </g>
            </g>
            <g id="Grupo_84591" data-name="Grupo 84591" transform="translate(46.205 20.256)">
              <g id="Grupo_84590" data-name="Grupo 84590">
                <path id="Trazado_118558" data-name="Trazado 118558" d="M296.546,329.354a131.972,131.972,0,0,1,2.583,18.683c.046.693,1.128.7,1.082,0a133.852,133.852,0,0,0-2.621-18.971c-.145-.68-1.189-.392-1.044.288Z" transform="translate(-296.532 -328.678)" fill="#173449"/>
              </g>
            </g>
            <g id="Grupo_84593" data-name="Grupo 84593" transform="translate(44.711 28.649)">
              <g id="Grupo_84592" data-name="Grupo 84592">
                <path id="Trazado_118559" data-name="Trazado 118559" d="M295.347,336.114l1.735,6.853a.542.542,0,0,0,1.044-.288l-1.735-6.853a.542.542,0,0,0-1.044.288Z" transform="translate(-295.328 -335.441)" fill="#173449"/>
              </g>
            </g>
            <g id="Grupo_84595" data-name="Grupo 84595" transform="translate(14.247 24.82)">
              <g id="Grupo_84594" data-name="Grupo 84594">
                <path id="Trazado_118560" data-name="Trazado 118560" d="M270.794,333.034l1.488,8.34c.122.685,1.165.395,1.044-.288l-1.488-8.34c-.122-.684-1.165-.395-1.044.288Z" transform="translate(-270.784 -332.355)" fill="#173449"/>
              </g>
            </g>
            <g id="Grupo_84597" data-name="Grupo 84597" transform="translate(16.866 21.265)">
              <g id="Grupo_84596" data-name="Grupo 84596">
                <path id="Trazado_118561" data-name="Trazado 118561" d="M272.9,330.175l.707,4.488a.547.547,0,0,0,.667.379.554.554,0,0,0,.377-.665l-.707-4.49a.545.545,0,0,0-.665-.379.556.556,0,0,0-.379.667Z" transform="translate(-272.895 -329.492)" fill="#173449"/>
              </g>
            </g>
          </g>
          <g id="Grupo_84599" data-name="Grupo 84599" transform="translate(4.198 35.13)">
            <path id="Trazado_118562" data-name="Trazado 118562" d="M262.688,340.734s19.151-1.244,23.607,6.595,12.032-5.347,19.912,5.1L296.6,365.412Z" transform="translate(-262.688 -340.662)" fill="#f7ae57"/>
          </g>
        </g>
        <g id="Grupo_84612" data-name="Grupo 84612" transform="translate(228.305 98.407)">
          <g id="Grupo_84603" data-name="Grupo 84603">
            <g id="Grupo_84601" data-name="Grupo 84601">
              <rect id="Rectángulo_34684" data-name="Rectángulo 34684" width="38.612" height="36.199" transform="matrix(0.588, -0.809, 0.809, 0.588, 0, 31.22)" fill="#173449"/>
            </g>
            <g id="Grupo_84602" data-name="Grupo 84602" transform="translate(2.804 2.966)">
              <path id="Trazado_118563" data-name="Trazado 118563" d="M491.116,388.529l-19.857,27.285L445.5,397.634l19.857-27.285Z" transform="translate(-445.501 -370.349)" fill="#fff"/>
            </g>
          </g>
          <g id="Grupo_84605" data-name="Grupo 84605" transform="translate(18.078 36.268)">
            <g id="Grupo_84604" data-name="Grupo 84604">
              <path id="Trazado_118564" data-name="Trazado 118564" d="M458.352,399.224l6.711-1.2c.551-.1.318-.938-.232-.84l-6.71,1.2c-.551.1-.318.938.231.84Z" transform="translate(-457.806 -397.18)" fill="#173449"/>
            </g>
          </g>
          <g id="Grupo_84607" data-name="Grupo 84607" transform="translate(15.218 34.789)">
            <g id="Grupo_84606" data-name="Grupo 84606">
              <path id="Trazado_118565" data-name="Trazado 118565" d="M456.052,397.4l3.612-.57a.438.438,0,0,0,.3-.535.446.446,0,0,0-.536-.3l-3.612.569a.44.44,0,0,0-.3.536.446.446,0,0,0,.536.3Z" transform="translate(-455.502 -395.988)" fill="#173449"/>
            </g>
          </g>
          <g id="Grupo_84609" data-name="Grupo 84609" transform="translate(16.298 12.379)">
            <g id="Grupo_84608" data-name="Grupo 84608">
              <path id="Trazado_118566" data-name="Trazado 118566" d="M456.918,380.885a105.936,105.936,0,0,1,15.034-2.079c.556-.037.56-.909,0-.871a107.591,107.591,0,0,0-15.266,2.11c-.549.117-.317.956.232.84Z" transform="translate(-456.373 -377.933)" fill="#173449"/>
            </g>
          </g>
          <g id="Grupo_84611" data-name="Grupo 84611" transform="translate(23.053 14.277)">
            <g id="Grupo_84610" data-name="Grupo 84610">
              <path id="Trazado_118567" data-name="Trazado 118567" d="M462.356,381.714l5.515-1.4a.436.436,0,0,0-.232-.84l-5.515,1.4a.436.436,0,0,0,.232.84Z" transform="translate(-461.815 -379.462)" fill="#173449"/>
            </g>
          </g>
        </g>
        <g id="Grupo_84624" data-name="Grupo 84624" transform="translate(71.946)">
          <g id="Grupo_84615" data-name="Grupo 84615">
            <g id="Grupo_84613" data-name="Grupo 84613">
              <rect id="Rectángulo_34685" data-name="Rectángulo 34685" width="38.612" height="36.199" transform="matrix(0.587, 0.81, -0.81, 0.587, 29.319, 0)" fill="#173449"/>
            </g>
            <g id="Grupo_84614" data-name="Grupo 84614" transform="translate(2.778 2.966)">
              <path id="Trazado_118568" data-name="Trazado 118568" d="M339.3,337.112l-19.793-27.332L346.1,291.067,365.894,318.4Z" transform="translate(-319.508 -291.067)" fill="#fff"/>
            </g>
          </g>
          <g id="Grupo_84617" data-name="Grupo 84617" transform="translate(8.792 18.633)">
            <g id="Grupo_84616" data-name="Grupo 84616">
              <path id="Trazado_118569" data-name="Trazado 118569" d="M325.3,304.008l-.94,6.751a.451.451,0,0,0,.3.536.439.439,0,0,0,.536-.3l.94-6.752a.449.449,0,0,0-.3-.535.438.438,0,0,0-.536.3Z" transform="translate(-324.353 -303.69)" fill="#173449"/>
            </g>
          </g>
          <g id="Grupo_84619" data-name="Grupo 84619" transform="translate(12.041 16.57)">
            <g id="Grupo_84618" data-name="Grupo 84618">
              <path id="Trazado_118570" data-name="Trazado 118570" d="M327.557,302.345l-.578,3.612a.45.45,0,0,0,.305.535.438.438,0,0,0,.535-.3l.578-3.611a.451.451,0,0,0-.305-.536.438.438,0,0,0-.535.3Z" transform="translate(-326.971 -302.027)" fill="#173449"/>
            </g>
          </g>
          <g id="Grupo_84621" data-name="Grupo 84621" transform="translate(36.509 20.54)">
            <g id="Grupo_84620" data-name="Grupo 84620">
              <path id="Trazado_118571" data-name="Trazado 118571" d="M349.385,305.642A106.035,106.035,0,0,1,346.7,320.58a.436.436,0,0,0,.84.231,107.583,107.583,0,0,0,2.716-15.169c.06-.556-.812-.552-.87,0Z" transform="translate(-346.684 -305.226)" fill="#173449"/>
            </g>
          </g>
          <g id="Grupo_84623" data-name="Grupo 84623" transform="translate(35.597 26.586)">
            <g id="Grupo_84622" data-name="Grupo 84622">
              <path id="Trazado_118572" data-name="Trazado 118572" d="M346.331,310.515l-.381,5.676c-.037.56.834.557.871,0l.381-5.676c.037-.56-.834-.557-.871,0Z" transform="translate(-345.949 -310.096)" fill="#173449"/>
            </g>
          </g>
        </g>
        <g id="Grupo_84638" data-name="Grupo 84638" transform="translate(212.854 124.465)">
          <g id="Grupo_84627" data-name="Grupo 84627">
            <g id="Grupo_84625" data-name="Grupo 84625">
              <rect id="Rectángulo_34686" data-name="Rectángulo 34686" width="47.986" height="44.987" transform="translate(0 24.881) rotate(-31.232)" fill="#173449"/>
            </g>
            <g id="Grupo_84626" data-name="Grupo 84626" transform="translate(3.679 3.372)">
              <rect id="Rectángulo_34687" data-name="Rectángulo 34687" width="41.938" height="40.467" transform="translate(0 21.745) rotate(-31.232)" fill="#ffe7cc"/>
            </g>
          </g>
          <g id="Grupo_84629" data-name="Grupo 84629" transform="translate(26.469 13.682)">
            <g id="Grupo_84628" data-name="Grupo 84628">
              <path id="Trazado_118573" data-name="Trazado 118573" d="M452.509,401.032A132.783,132.783,0,0,1,470.88,405.9c.66.227.945-.818.288-1.044a132.774,132.774,0,0,0-18.371-4.871c-.681-.129-.973.914-.288,1.044Z" transform="translate(-452.118 -399.977)" fill="#173449"/>
            </g>
          </g>
          <g id="Grupo_84631" data-name="Grupo 84631" transform="translate(33.629 18.298)">
            <g id="Grupo_84630" data-name="Grupo 84630">
              <path id="Trazado_118574" data-name="Trazado 118574" d="M458.282,404.749l6.992,1.046a.559.559,0,0,0,.665-.377.544.544,0,0,0-.379-.665L458.57,403.7a.56.56,0,0,0-.667.379.546.546,0,0,0,.379.665Z" transform="translate(-457.887 -403.696)" fill="#173449"/>
            </g>
          </g>
          <g id="Grupo_84632" data-name="Grupo 84632" transform="translate(24.662 27.447)">
            <path id="Trazado_118575" data-name="Trazado 118575" d="M450.663,443.339l6.925-32.272,28.935,10.527Z" transform="translate(-450.663 -411.067)" fill="#3e9b7e"/>
          </g>
          <g id="Grupo_84634" data-name="Grupo 84634" transform="translate(21.127 46.828)">
            <g id="Grupo_84633" data-name="Grupo 84633">
              <path id="Trazado_118576" data-name="Trazado 118576" d="M448.2,427.74l8.268,1.849c.679.151.968-.891.288-1.044L448.49,426.7c-.679-.151-.968.892-.288,1.044Z" transform="translate(-447.814 -426.681)" fill="#173449"/>
            </g>
          </g>
          <g id="Grupo_84636" data-name="Grupo 84636" transform="translate(18.866 43.038)">
            <g id="Grupo_84635" data-name="Grupo 84635">
              <path id="Trazado_118577" data-name="Trazado 118577" d="M446.379,424.689l4.414,1.081c.677.166.966-.878.288-1.044l-4.414-1.081c-.676-.166-.966.878-.288,1.044Z" transform="translate(-445.993 -423.628)" fill="#173449"/>
            </g>
          </g>
          <g id="Grupo_84637" data-name="Grupo 84637" transform="translate(14.162 22.172)">
            <circle id="Elipse_4809" data-name="Elipse 4809" cx="5.471" cy="5.471" r="5.471" fill="#f7ae57"/>
          </g>
        </g>
      </g>
      <g id="Grupo_84645" data-name="Grupo 84645" transform="translate(294.385 293.035)">
        <g id="Grupo_84640" data-name="Grupo 84640" transform="translate(0 152.598)">
          <path id="Trazado_118578" data-name="Trazado 118578" d="M293.332,425.654a5.765,5.765,0,1,1,5.765-5.764A5.77,5.77,0,0,1,293.332,425.654Zm0-10.666a4.9,4.9,0,1,0,4.9,4.9A4.908,4.908,0,0,0,293.332,414.988Z" transform="translate(-287.568 -414.124)" fill="#173449"/>
        </g>
        <g id="Grupo_84641" data-name="Grupo 84641" transform="translate(8.415 167.288)">
          <path id="Trazado_118579" data-name="Trazado 118579" d="M296.31,429.884a1.962,1.962,0,1,1,1.961-1.962A1.964,1.964,0,0,1,296.31,429.884Zm0-3.061a1.1,1.1,0,1,0,1.1,1.1A1.1,1.1,0,0,0,296.31,426.823Z" transform="translate(-294.348 -425.959)" fill="#173449"/>
        </g>
        <g id="Grupo_84642" data-name="Grupo 84642" transform="translate(188.269 59.731)">
          <path id="Trazado_118580" data-name="Trazado 118580" d="M445.54,351.891a6.293,6.293,0,1,1,6.293-6.292A6.3,6.3,0,0,1,445.54,351.891Zm0-11.722a5.429,5.429,0,1,0,5.429,5.43A5.435,5.435,0,0,0,445.54,340.169Z" transform="translate(-439.248 -339.305)" fill="#173449"/>
        </g>
        <g id="Grupo_84643" data-name="Grupo 84643" transform="translate(185.22 52.09)">
          <path id="Trazado_118581" data-name="Trazado 118581" d="M438.981,337.528a2.19,2.19,0,1,1,2.19-2.19A2.193,2.193,0,0,1,438.981,337.528Zm0-3.515a1.326,1.326,0,1,0,1.326,1.326A1.327,1.327,0,0,0,438.981,334.013Z" transform="translate(-436.792 -333.149)" fill="#173449"/>
        </g>
        <g id="Grupo_84644" data-name="Grupo 84644" transform="translate(92.143)">
          <path id="Trazado_118582" data-name="Trazado 118582" d="M367.2,301.973a5.4,5.4,0,1,1,5.4-5.394A5.4,5.4,0,0,1,367.2,301.973Zm0-9.926a4.531,4.531,0,1,0,4.532,4.532A4.536,4.536,0,0,0,367.2,292.047Z" transform="translate(-361.804 -291.182)" fill="#173449"/>
        </g>
      </g>
      <g id="Grupo_84820" data-name="Grupo 84820" transform="translate(314.41 323.018)">
        <g id="Grupo_84646" data-name="Grupo 84646">
          <path id="Trazado_118583" data-name="Trazado 118583" d="M333.37,435.5c-.446,1.962-3.432,1.213-5.043.007-8.132-6.084-16.046-12.993-20.586-22.078a38.536,38.536,0,0,1,13.944-49.841c3.716-2.34,9.474-3.85,13.706-2.674a9.485,9.485,0,0,1-1.1-3.014,19.846,19.846,0,0,1,7.836-19.861c6.173-4.324,15.343-4.322,21.742-.34a13.047,13.047,0,0,1,24.572-8.774c4.251-6.89,12.425-12.593,20.475-13.454a15.916,15.916,0,0,1,8.607,1.159c5.522,2.665,7.89,9.184,9.212,15.171,3.83-2.161,7.939-1.638,12.231-.679a17.849,17.849,0,0,1,9.85,5.465c2.756,3.248,3.782,7.64,4.013,11.893a39.018,39.018,0,0,1-6.613,23.814l1.076-1.712c3.714-5.9,9.734-5.234,15.864-1.908s9.942,10.061,10.882,16.971-.7,13.963-3.4,20.391c-6.052,14.387-17.969,26.565-32.828,31.34-15.617,5.02-32.491,1.712-48.836.315a204.786,204.786,0,0,0-46.6,1.349c-1.918.277-4.058.529-5.623-.611S331.451,435.761,333.37,435.5Z" transform="translate(-303.701 -315.338)" fill="#173449"/>
        </g>
        <g id="Grupo_84819" data-name="Grupo 84819" transform="translate(11.111 16.979)">
          <g id="Grupo_84684" data-name="Grupo 84684" transform="translate(53.201)">
            <g id="Grupo_84647" data-name="Grupo 84647" transform="translate(10.645 38.334)">
              <path id="Trazado_118584" data-name="Trazado 118584" d="M385.2,388.092,381.2,361.1l-6.531-1.2-6.531,1.2-4.009,26.992s-1.165,10.6,10.54,13.4C386.37,398.689,385.2,388.092,385.2,388.092Z" transform="translate(-364.091 -359.901)" fill="#fcc0b4"/>
            </g>
            <g id="Grupo_84681" data-name="Grupo 84681">
              <g id="Grupo_84680" data-name="Grupo 84680">
                <g id="Grupo_84648" data-name="Grupo 84648" transform="translate(5.942)">
                  <path id="Trazado_118585" data-name="Trazado 118585" d="M390.415,361.157c.164-2.687.793-5.784.166-8.4a135.278,135.278,0,0,0-4.461-14.845,17.913,17.913,0,0,0-3.6-6.595c-1.764-1.806-4.516-2.871-6.874-1.972-2.36-.9-5.111.166-6.875,1.972a17.912,17.912,0,0,0-3.6,6.595,135.278,135.278,0,0,0-4.461,14.845,28.637,28.637,0,0,0-.226,8.226,10.649,10.649,0,0,0,3.107,7.243c1.6,1.465,5.132,2.85,7.881,3.771a14.074,14.074,0,0,0,9.171-.051,21.773,21.773,0,0,0,6.663-3.541A10.651,10.651,0,0,0,390.415,361.157Z" transform="translate(-360.302 -329.017)" fill="#fcc0b4"/>
                </g>
                <g id="Grupo_84655" data-name="Grupo 84655" transform="translate(13.102 13.202)">
                  <g id="Grupo_84651" data-name="Grupo 84651">
                    <g id="Grupo_84649" data-name="Grupo 84649">
                      <ellipse id="Elipse_4810" data-name="Elipse 4810" cx="2.806" cy="3.267" rx="2.806" ry="3.267" fill="#fff"/>
                    </g>
                    <g id="Grupo_84650" data-name="Grupo 84650" transform="translate(1.737 3.069)">
                      <ellipse id="Elipse_4811" data-name="Elipse 4811" cx="1.052" cy="1.236" rx="1.052" ry="1.236" fill="#173449"/>
                    </g>
                  </g>
                  <g id="Grupo_84654" data-name="Grupo 84654" transform="translate(11.358 0.008)">
                    <g id="Grupo_84652" data-name="Grupo 84652">
                      <ellipse id="Elipse_4812" data-name="Elipse 4812" cx="2.806" cy="3.267" rx="2.806" ry="3.267" fill="#fff"/>
                    </g>
                    <g id="Grupo_84653" data-name="Grupo 84653" transform="translate(1.754 3.061)">
                      <ellipse id="Elipse_4813" data-name="Elipse 4813" cx="1.052" cy="1.236" rx="1.052" ry="1.236" fill="#173449"/>
                    </g>
                  </g>
                </g>
                <g id="Grupo_84661" data-name="Grupo 84661" transform="translate(0 12.497)">
                  <g id="Grupo_84656" data-name="Grupo 84656">
                    <path id="Trazado_118586" data-name="Trazado 118586" d="M363.449,339.65c-.037-.026-.075-.051-.113-.076a3.979,3.979,0,0,0-4.017.124,8.109,8.109,0,0,0-2.28,11.622,3.9,3.9,0,0,0,1.538,1.334,3.544,3.544,0,0,0,2.626-.081,6.684,6.684,0,0,0,3.7-3.94,10.535,10.535,0,0,0,.365-5.492A5.226,5.226,0,0,0,363.449,339.65Z" transform="translate(-355.515 -339.085)" fill="#fcc0b4"/>
                  </g>
                  <g id="Grupo_84658" data-name="Grupo 84658" transform="translate(3.754 3.026)">
                    <g id="Grupo_84657" data-name="Grupo 84657">
                      <path id="Trazado_118587" data-name="Trazado 118587" d="M360.678,341.587a6.34,6.34,0,0,0-1.585,7.336c.135.294.568.038.434-.254a5.834,5.834,0,0,1,1.507-6.725c.247-.211-.11-.566-.356-.356Z" transform="translate(-358.539 -341.523)" fill="#173449"/>
                    </g>
                  </g>
                  <g id="Grupo_84660" data-name="Grupo 84660" transform="translate(4.032 6.385)">
                    <g id="Grupo_84659" data-name="Grupo 84659">
                      <path id="Trazado_118588" data-name="Trazado 118588" d="M358.948,344.728a2.829,2.829,0,0,1,1.666,2.144.255.255,0,0,0,.31.176.259.259,0,0,0,.176-.31,3.33,3.33,0,0,0-2.018-2.495.252.252,0,0,0-.309.176.258.258,0,0,0,.175.309Z" transform="translate(-358.763 -344.229)" fill="#173449"/>
                    </g>
                  </g>
                </g>
                <g id="Grupo_84667" data-name="Grupo 84667" transform="translate(32.173 12.497)">
                  <g id="Grupo_84662" data-name="Grupo 84662">
                    <path id="Trazado_118589" data-name="Trazado 118589" d="M383.453,339.65c.037-.026.076-.051.114-.076a3.979,3.979,0,0,1,4.017.124,8.11,8.11,0,0,1,2.28,11.622,3.908,3.908,0,0,1-1.539,1.334,3.545,3.545,0,0,1-2.626-.081,6.691,6.691,0,0,1-3.7-3.94,10.548,10.548,0,0,1-.364-5.492A5.219,5.219,0,0,1,383.453,339.65Z" transform="translate(-381.436 -339.085)" fill="#fcc0b4"/>
                  </g>
                  <g id="Grupo_84664" data-name="Grupo 84664" transform="translate(3.62 3.026)">
                    <g id="Grupo_84663" data-name="Grupo 84663">
                      <path id="Trazado_118590" data-name="Trazado 118590" d="M384.435,341.944a5.834,5.834,0,0,1,1.507,6.725c-.134.293.3.549.436.254a6.34,6.34,0,0,0-1.586-7.336c-.246-.21-.6.145-.356.356Z" transform="translate(-384.352 -341.523)" fill="#173449"/>
                    </g>
                  </g>
                  <g id="Grupo_84666" data-name="Grupo 84666" transform="translate(3.579 6.385)">
                    <g id="Grupo_84665" data-name="Grupo 84665">
                      <path id="Trazado_118591" data-name="Trazado 118591" d="M386.341,344.243a3.328,3.328,0,0,0-2.017,2.495.259.259,0,0,0,.176.31.253.253,0,0,0,.309-.176,2.832,2.832,0,0,1,1.666-2.144.261.261,0,0,0,.176-.309.254.254,0,0,0-.31-.176Z" transform="translate(-384.319 -344.229)" fill="#173449"/>
                    </g>
                  </g>
                </g>
                <g id="Grupo_84669" data-name="Grupo 84669" transform="translate(12.779 8.665)">
                  <g id="Grupo_84668" data-name="Grupo 84668">
                    <path id="Trazado_118592" data-name="Trazado 118592" d="M366.577,338.354c.794-1.368,2.543-1.521,3.961-1.535a.41.41,0,0,0,0-.82c-1.724.02-3.716.3-4.668,1.941a.41.41,0,0,0,.707.415Z" transform="translate(-365.811 -335.998)" fill="#173449"/>
                  </g>
                </g>
                <g id="Grupo_84671" data-name="Grupo 84671" transform="translate(24.036 8.311)">
                  <g id="Grupo_84670" data-name="Grupo 84670">
                    <path id="Trazado_118593" data-name="Trazado 118593" d="M375.4,336.61a5.309,5.309,0,0,1,4.059.936.412.412,0,0,0,.56-.146.418.418,0,0,0-.146-.561,6.111,6.111,0,0,0-4.689-1.018.409.409,0,1,0,.217.789Z" transform="translate(-374.88 -335.713)" fill="#173449"/>
                  </g>
                </g>
                <g id="Grupo_84673" data-name="Grupo 84673" transform="translate(20.568 20.421)">
                  <g id="Grupo_84672" data-name="Grupo 84672">
                    <path id="Trazado_118594" data-name="Trazado 118594" d="M372.4,346.343c.891-.357,2.065-.652,2.855.081a1.227,1.227,0,0,1,.434,1.1,1.35,1.35,0,0,1-.8.92,2.781,2.781,0,0,1-1.81.02.252.252,0,0,0-.134.487,3.436,3.436,0,0,0,1.992.015,1.96,1.96,0,0,0,1.173-1.085,1.9,1.9,0,0,0-1.646-2.371,4.142,4.142,0,0,0-2.194.351.259.259,0,0,0-.176.309.253.253,0,0,0,.309.176Z" transform="translate(-372.086 -345.469)" fill="#173449"/>
                  </g>
                </g>
                <g id="Grupo_84675" data-name="Grupo 84675" transform="translate(17.156 25.104)">
                  <g id="Grupo_84674" data-name="Grupo 84674">
                    <path id="Trazado_118595" data-name="Trazado 118595" d="M370.01,349.367c-.593,1.1-1.138,2.762-.042,3.752a2.7,2.7,0,0,0,3.425-.186,8.37,8.37,0,0,0,1.61-1.915c.182-.268-.253-.521-.436-.254-.783,1.149-1.862,2.645-3.462,2.358a1.48,1.48,0,0,1-1.254-1.317,3.909,3.909,0,0,1,.593-2.183c.154-.285-.281-.54-.434-.254Z" transform="translate(-369.337 -349.242)" fill="#173449"/>
                  </g>
                </g>
                <g id="Grupo_84677" data-name="Grupo 84677" transform="translate(15.765 29.538)">
                  <g id="Grupo_84676" data-name="Grupo 84676">
                    <path id="Trazado_118596" data-name="Trazado 118596" d="M368.232,353a1.294,1.294,0,0,0,.326,1.072,1.266,1.266,0,0,0,.983.436.252.252,0,0,0,0-.5c-.038,0-.077,0-.115,0-.02,0-.066-.016,0,0-.015,0-.032,0-.048-.009a.718.718,0,0,1-.1-.027c-.019,0-.036-.012-.055-.019-.046-.017.048.024,0,0a.979.979,0,0,1-.087-.046c-.011-.006-.1-.05-.1-.063l.025.02-.026-.021L369,353.8a.89.89,0,0,1-.076-.077l-.034-.037c-.041-.05.022.034-.006-.007s-.038-.055-.055-.083a.865.865,0,0,1-.051-.094l-.011-.022c-.011-.025-.009-.02.006.015l-.017-.046c-.01-.031-.02-.062-.027-.094l-.011-.056c-.011-.065,0,.046,0-.006,0-.032,0-.065,0-.1v-.048l0-.034c-.006.04-.007.046,0,.017a.258.258,0,0,0-.176-.309.253.253,0,0,0-.309.175Z" transform="translate(-368.216 -352.815)" fill="#173449"/>
                  </g>
                </g>
                <g id="Grupo_84678" data-name="Grupo 84678" transform="translate(10.105 20.78)">
                  <ellipse id="Elipse_4814" data-name="Elipse 4814" cx="1.762" cy="2.719" rx="1.762" ry="2.719" transform="matrix(0.209, -0.978, 0.978, 0.209, 0, 3.447)" fill="#f47471"/>
                </g>
                <g id="Grupo_84679" data-name="Grupo 84679" transform="translate(26.462 20.4)">
                  <ellipse id="Elipse_4815" data-name="Elipse 4815" cx="2.719" cy="1.762" rx="2.719" ry="1.762" transform="matrix(0.978, -0.209, 0.209, 0.978, 0, 1.138)" fill="#f47471"/>
                </g>
              </g>
            </g>
            <g id="Grupo_84683" data-name="Grupo 84683" transform="translate(18.089 41.616)">
              <g id="Grupo_84682" data-name="Grupo 84682">
                <path id="Trazado_118597" data-name="Trazado 118597" d="M370.33,363.894a29.25,29.25,0,0,0,5.886-.125c.925-.1,1.842-.222,2.772-.276a8.382,8.382,0,0,0,2.568-.443c.3-.115.169-.6-.134-.487a8.523,8.523,0,0,1-2.631.437c-.935.053-1.858.19-2.788.287a28.688,28.688,0,0,1-5.672.1c-.323-.03-.32.474,0,.5Z" transform="translate(-370.089 -362.546)" fill="#173449"/>
              </g>
            </g>
          </g>
          <g id="Grupo_84720" data-name="Grupo 84720" transform="translate(72.982 4.426)">
            <g id="Grupo_84719" data-name="Grupo 84719">
              <g id="Grupo_84685" data-name="Grupo 84685" transform="translate(0 7.378)">
                <rect id="Rectángulo_34688" data-name="Rectángulo 34688" width="38.88" height="26.238" rx="1.786" fill="#724444"/>
              </g>
              <g id="Grupo_84688" data-name="Grupo 84688" transform="translate(20.418)">
                <g id="Grupo_84686" data-name="Grupo 84686">
                  <path id="Rectángulo_34689" data-name="Rectángulo 34689" d="M2.062,0h8.971a2.062,2.062,0,0,1,2.062,2.062v8.179a0,0,0,0,1,0,0H0a0,0,0,0,1,0,0V2.062A2.062,2.062,0,0,1,2.062,0Z" fill="#724444"/>
                </g>
                <g id="Grupo_84687" data-name="Grupo 84687" transform="translate(2.091 1.969)">
                  <rect id="Rectángulo_34690" data-name="Rectángulo 34690" width="8.911" height="4.136" fill="#6791ce"/>
                </g>
              </g>
              <g id="Grupo_84689" data-name="Grupo 84689" transform="translate(16.863 9.387)">
                <circle id="Elipse_4816" data-name="Elipse 4816" cx="9.249" cy="9.249" r="9.249" transform="translate(0.854 0.854)" fill="#6791ce"/>
                <path id="Trazado_118598" data-name="Trazado 118598" d="M395.139,360.351a10.1,10.1,0,1,1,10.1-10.1A10.113,10.113,0,0,1,395.139,360.351Zm0-18.5a8.4,8.4,0,1,0,8.4,8.394A8.4,8.4,0,0,0,395.139,341.854Z" transform="translate(-385.038 -340.146)" fill="#f7ae57"/>
              </g>
              <g id="Grupo_84690" data-name="Grupo 84690" transform="translate(0 7.378)">
                <path id="Rectángulo_34691" data-name="Rectángulo 34691" d="M1.719,0H12.647a0,0,0,0,1,0,0V26.238a0,0,0,0,1,0,0H1.719A1.719,1.719,0,0,1,0,24.519V1.719A1.719,1.719,0,0,1,1.719,0Z" fill="#563030"/>
              </g>
              <g id="Grupo_84691" data-name="Grupo 84691" transform="translate(21.418 13.473)">
                <path id="Trazado_118599" data-name="Trazado 118599" d="M394.657,355.34a5.951,5.951,0,1,1,5.95-5.952A5.957,5.957,0,0,1,394.657,355.34Zm0-11.689a5.737,5.737,0,1,0,5.737,5.737A5.743,5.743,0,0,0,394.657,343.651Z" transform="translate(-388.708 -343.438)" fill="#fff"/>
              </g>
              <g id="Grupo_84692" data-name="Grupo 84692" transform="translate(13.836 27.151)">
                <circle id="Elipse_4817" data-name="Elipse 4817" cx="1.728" cy="1.728" r="1.728" transform="translate(0.425 0.426)" fill="#f85955"/>
                <path id="Trazado_118600" data-name="Trazado 118600" d="M384.751,358.765a2.154,2.154,0,1,1,2.155-2.154A2.154,2.154,0,0,1,384.751,358.765Zm0-3.456a1.3,1.3,0,1,0,1.3,1.3A1.3,1.3,0,0,0,384.751,355.309Z" transform="translate(-382.599 -354.458)" fill="#301b1b"/>
              </g>
              <g id="Grupo_84693" data-name="Grupo 84693" transform="translate(7.324 27.151)">
                <circle id="Elipse_4818" data-name="Elipse 4818" cx="1.728" cy="1.728" r="1.728" transform="translate(0.425 0.426)" fill="#f7ae57"/>
                <path id="Trazado_118601" data-name="Trazado 118601" d="M379.505,358.765a2.154,2.154,0,1,1,2.154-2.154A2.154,2.154,0,0,1,379.505,358.765Zm0-3.456a1.3,1.3,0,1,0,1.3,1.3A1.3,1.3,0,0,0,379.505,355.309Z" transform="translate(-377.353 -354.458)" fill="#301b1b"/>
              </g>
              <g id="Grupo_84694" data-name="Grupo 84694" transform="translate(0 11.409)">
                <rect id="Rectángulo_34692" data-name="Rectángulo 34692" width="6.664" height="3.673" fill="#f85955"/>
              </g>
              <g id="Grupo_84696" data-name="Grupo 84696" transform="translate(18.51 16.276)">
                <g id="Grupo_84695" data-name="Grupo 84695">
                  <path id="Trazado_118602" data-name="Trazado 118602" d="M386.868,345.919a9.957,9.957,0,0,0,1.666,9.313c.259.325.715-.135.458-.458a9.3,9.3,0,0,1-1.5-8.682c.133-.4-.493-.566-.626-.173Z" transform="translate(-386.365 -345.696)" fill="#301b1b"/>
                </g>
              </g>
              <g id="Grupo_84698" data-name="Grupo 84698" transform="translate(25.121 27.406)">
                <g id="Grupo_84697" data-name="Grupo 84697">
                  <path id="Trazado_118603" data-name="Trazado 118603" d="M391.849,355.264a3.041,3.041,0,0,0,2.034.346.326.326,0,0,0,.227-.4.335.335,0,0,0-.4-.226l-.061.01c.035,0,.034,0-.006,0l-.092.009c-.072.006-.144.009-.216.009s-.144,0-.215-.009c-.012,0-.137-.015-.067-.006l-.107-.017a2.555,2.555,0,0,1-.417-.111l-.1-.038c-.036-.014-.038-.015-.009,0l-.041-.019c-.071-.034-.139-.068-.206-.107a.323.323,0,1,0-.326.559Z" transform="translate(-391.691 -354.663)" fill="#301b1b"/>
                </g>
              </g>
              <g id="Grupo_84700" data-name="Grupo 84700" transform="translate(31.465 12.593)">
                <g id="Grupo_84699" data-name="Grupo 84699">
                  <path id="Trazado_118604" data-name="Trazado 118604" d="M396.961,343.336s.066.051.04.03l.04.031.119.1q.112.093.22.19c.148.134.29.273.426.42s.258.289.379.441c.061.077-.019-.025.015.02l.046.061c.031.041.061.082.091.124q.088.125.171.253a.324.324,0,0,0,.56-.328,7.479,7.479,0,0,0-1.779-1.9.325.325,0,0,0-.443.117.334.334,0,0,0,.117.443Z" transform="translate(-396.802 -342.729)" fill="#301b1b"/>
                </g>
              </g>
              <g id="Grupo_84702" data-name="Grupo 84702" transform="translate(22.896 3.244)">
                <g id="Grupo_84701" data-name="Grupo 84701">
                  <path id="Trazado_118605" data-name="Trazado 118605" d="M389.992,335.747a10.654,10.654,0,0,0,2.523,1.7.332.332,0,0,0,.443-.117.327.327,0,0,0-.115-.443,10.055,10.055,0,0,1-2.393-1.6.324.324,0,0,0-.458.458Z" transform="translate(-389.899 -335.197)" fill="#301b1b"/>
                </g>
              </g>
              <g id="Grupo_84704" data-name="Grupo 84704" transform="translate(24.444 2.924)">
                <g id="Grupo_84703" data-name="Grupo 84703">
                  <path id="Trazado_118606" data-name="Trazado 118606" d="M391.3,335.543l1,.673a.326.326,0,0,0,.443-.117.331.331,0,0,0-.117-.443l-1-.671a.325.325,0,0,0-.443.115.331.331,0,0,0,.115.443Z" transform="translate(-391.146 -334.939)" fill="#301b1b"/>
                </g>
              </g>
              <g id="Grupo_84706" data-name="Grupo 84706" transform="translate(12.425 8.927)">
                <g id="Grupo_84705" data-name="Grupo 84705">
                  <path id="Trazado_118607" data-name="Trazado 118607" d="M381.463,340.088l.21,4.676c.019.416.667.417.648,0l-.21-4.676c-.019-.415-.667-.417-.648,0Z" transform="translate(-381.463 -339.776)" fill="#301b1b"/>
                </g>
              </g>
              <g id="Grupo_84708" data-name="Grupo 84708" transform="translate(12.35 17.038)">
                <g id="Grupo_84707" data-name="Grupo 84707">
                  <path id="Trazado_118608" data-name="Trazado 118608" d="M381.4,346.634l.1.891a.357.357,0,0,0,.1.228.323.323,0,0,0,.228.1.329.329,0,0,0,.23-.1.312.312,0,0,0,.094-.228l-.1-.891a.358.358,0,0,0-.1-.23.325.325,0,0,0-.458,0,.317.317,0,0,0-.094.23Z" transform="translate(-381.402 -346.31)" fill="#301b1b"/>
                </g>
              </g>
              <g id="Grupo_84710" data-name="Grupo 84710" transform="translate(32.505 26.487)">
                <g id="Grupo_84709" data-name="Grupo 84709">
                  <path id="Trazado_118609" data-name="Trazado 118609" d="M398.124,358.489a8.326,8.326,0,0,0,3.533-4.156.327.327,0,0,0-.227-.4.332.332,0,0,0-.4.226,7.617,7.617,0,0,1-3.235,3.77.324.324,0,0,0,.328.559Z" transform="translate(-397.641 -353.923)" fill="#301b1b"/>
                </g>
              </g>
              <g id="Grupo_84712" data-name="Grupo 84712" transform="translate(35.154 28.73)">
                <g id="Grupo_84711" data-name="Grupo 84711">
                  <path id="Trazado_118610" data-name="Trazado 118610" d="M400.328,357.3a4.35,4.35,0,0,0,.926-1.084.324.324,0,0,0-.56-.328,4.176,4.176,0,0,1-.267.391l.051-.066a4.1,4.1,0,0,1-.608.628.323.323,0,0,0-.1.228.331.331,0,0,0,.1.23.324.324,0,0,0,.228.094.369.369,0,0,0,.23-.094Z" transform="translate(-399.774 -355.73)" fill="#301b1b"/>
                </g>
              </g>
              <g id="Grupo_84714" data-name="Grupo 84714" transform="translate(2.411 26.055)">
                <g id="Grupo_84713" data-name="Grupo 84713">
                  <path id="Trazado_118611" data-name="Trazado 118611" d="M373.4,353.887c-.145,2.455,1.8,4.221,3.631,5.517.341.242.665-.319.328-.559-1.642-1.167-3.442-2.747-3.31-4.959.025-.417-.623-.415-.648,0Z" transform="translate(-373.395 -353.575)" fill="#301b1b"/>
                </g>
              </g>
              <g id="Grupo_84716" data-name="Grupo 84716" transform="translate(1.544 29.168)">
                <g id="Grupo_84715" data-name="Grupo 84715">
                  <path id="Trazado_118612" data-name="Trazado 118612" d="M372.736,356.57a7.782,7.782,0,0,0,1.144,1.746.325.325,0,0,0,.458,0,.333.333,0,0,0,0-.458c-.052-.061-.1-.122-.154-.184l-.084-.105c-.032-.041.026.035,0-.006l-.036-.048c-.1-.132-.192-.268-.283-.406a7.75,7.75,0,0,1-.482-.865.325.325,0,0,0-.443-.117.332.332,0,0,0-.115.443Z" transform="translate(-372.696 -356.083)" fill="#301b1b"/>
                </g>
              </g>
              <g id="Grupo_84717" data-name="Grupo 84717" transform="translate(27.812 18.512)">
                <path id="Trazado_118613" data-name="Trazado 118613" d="M394.315,350.775l.05-.066c.645-.853.953-1.93,1.631-2.759a.892.892,0,0,1,.874-.434,1.227,1.227,0,0,1,.779.641,2.157,2.157,0,0,1,.153,1.288,4.3,4.3,0,0,1-1.446,2.569,2.611,2.611,0,0,1-.93.557,1.374,1.374,0,0,1-1.061-.074.945.945,0,0,1-.5-.9A1.773,1.773,0,0,1,394.315,350.775Z" transform="translate(-393.859 -347.498)" fill="#fff"/>
              </g>
              <g id="Grupo_84718" data-name="Grupo 84718" transform="translate(26.461 18.573)">
                <path id="Trazado_118614" data-name="Trazado 118614" d="M392.811,348.978a1.258,1.258,0,0,0-.037.22.9.9,0,0,0,.511.922.874.874,0,0,0,.643-.034,1.867,1.867,0,0,0,.739-.659,2.082,2.082,0,0,0,.387-.8.987.987,0,0,0-.186-.842c-.485-.557-1.276-.036-1.623.4A2.172,2.172,0,0,0,392.811,348.978Z" transform="translate(-392.771 -347.547)" fill="#fff"/>
              </g>
            </g>
          </g>
          <g id="Grupo_84750" data-name="Grupo 84750" transform="translate(85.582 22.245)">
            <g id="Grupo_84721" data-name="Grupo 84721">
              <path id="Trazado_118615" data-name="Trazado 118615" d="M405.314,376.378c-2.507,3.427-6.422,4.681-10.668,4.774l-1.156-3.526c-.767-2.34-1.667-4.858-3.731-6.2-.631-.41-1.342-.686-1.95-1.126a8.845,8.845,0,0,1-2.427-3.344,2.124,2.124,0,0,1-.33-1.575c.176-.523,1.346-.9,1.579-.4a9.153,9.153,0,0,1-4.653-4.682,2.894,2.894,0,0,1-.154-2.481c.41-.755,1.9-1.05,2.31-.3-1.143-1.424-2.343-2.983-2.132-4.9a2.528,2.528,0,0,1,2.592-2.369c1.626.158,2.368,2.037,3.173,3.462a9.3,9.3,0,0,0,16.894-1.552c.48-1.4.633-2.927,1.079-4.324a1.28,1.28,0,0,1,2.207-.433,6.607,6.607,0,0,1,1.37,3.71,10.382,10.382,0,0,1-1.552,5.651c-1.563,2.718-3.967,5.093-4.487,8.185a12.912,12.912,0,0,0,1.1,6.6A30.747,30.747,0,0,1,405.314,376.378Z" transform="translate(-381.603 -346.939)" fill="#fcc0b4"/>
            </g>
            <g id="Grupo_84723" data-name="Grupo 84723" transform="translate(25.284 0.172)">
              <g id="Grupo_84722" data-name="Grupo 84722">
                <path id="Trazado_118616" data-name="Trazado 118616" d="M402.263,347.2a2.346,2.346,0,0,0-.048,2.16,1.654,1.654,0,0,0,1.678.842.252.252,0,1,0-.134-.485,1.155,1.155,0,0,1-1.127-.644,1.834,1.834,0,0,1,.067-1.619.252.252,0,0,0-.436-.253Z" transform="translate(-401.973 -347.078)" fill="#173449"/>
              </g>
            </g>
            <g id="Grupo_84725" data-name="Grupo 84725" transform="translate(0.534 3.243)">
              <g id="Grupo_84724" data-name="Grupo 84724">
                <path id="Trazado_118617" data-name="Trazado 118617" d="M382.045,351.583a1.788,1.788,0,0,0,1.8,1.38,1.578,1.578,0,0,0,1.309-1.678,4.448,4.448,0,0,0-.387-1.548.261.261,0,0,0-.31-.176.254.254,0,0,0-.176.31c.278.714.675,1.753,0,2.381a.938.938,0,0,1-1.057.1,1.479,1.479,0,0,1-.7-.9c-.1-.309-.581-.177-.487.134Z" transform="translate(-382.033 -349.552)" fill="#173449"/>
              </g>
            </g>
            <g id="Grupo_84727" data-name="Grupo 84727" transform="translate(0.126 10.223)">
              <g id="Grupo_84726" data-name="Grupo 84726">
                <path id="Trazado_118618" data-name="Trazado 118618" d="M381.781,357.865a1.175,1.175,0,0,0,1.677-.221,2.281,2.281,0,0,0-.022-2.346.253.253,0,0,0-.344-.091.259.259,0,0,0-.091.345,3.177,3.177,0,0,1,.269.937,1.156,1.156,0,0,1-.175.8.913.913,0,0,1-.478.314.477.477,0,0,1-.48-.1c-.233-.225-.591.132-.356.356Z" transform="translate(-381.704 -355.175)" fill="#173449"/>
              </g>
            </g>
            <g id="Grupo_84729" data-name="Grupo 84729" transform="translate(1.338 8.658)">
              <g id="Grupo_84728" data-name="Grupo 84728">
                <path id="Trazado_118619" data-name="Trazado 118619" d="M382.7,354.222c1.329,3.8,4.951,5.907,8.415,7.493.292.134.549-.3.254-.434-3.328-1.523-6.9-3.529-8.183-7.193-.107-.3-.593-.174-.487.134Z" transform="translate(-382.681 -353.915)" fill="#173449"/>
              </g>
            </g>
            <g id="Grupo_84731" data-name="Grupo 84731" transform="translate(2.547 16.342)">
              <g id="Grupo_84730" data-name="Grupo 84730">
                <path id="Trazado_118620" data-name="Trazado 118620" d="M383.731,360.533c1.559,1.507,3.729,2,5.783,2.435.317.066.452-.42.134-.487-1.964-.411-4.07-.864-5.561-2.3-.233-.226-.59.13-.356.356Z" transform="translate(-383.655 -360.105)" fill="#173449"/>
              </g>
            </g>
            <g id="Grupo_84733" data-name="Grupo 84733" transform="translate(4.02 20.305)">
              <g id="Grupo_84732" data-name="Grupo 84732">
                <path id="Trazado_118621" data-name="Trazado 118621" d="M385.012,363.8a14.008,14.008,0,0,0,3.933.835c.324.021.323-.482,0-.5a13.569,13.569,0,0,1-3.8-.817c-.3-.113-.436.374-.134.485Z" transform="translate(-384.841 -363.298)" fill="#173449"/>
              </g>
            </g>
            <g id="Grupo_84735" data-name="Grupo 84735" transform="translate(24.627 8.33)">
              <g id="Grupo_84734" data-name="Grupo 84734">
                <path id="Trazado_118622" data-name="Trazado 118622" d="M401.516,354.081l.932.792a.268.268,0,0,0,.179.074.252.252,0,0,0,.177-.43l-.932-.793a.267.267,0,0,0-.177-.074.253.253,0,0,0-.179.431Z" transform="translate(-401.444 -353.65)" fill="#173449"/>
              </g>
            </g>
            <g id="Grupo_84737" data-name="Grupo 84737" transform="translate(25.461 7.897)">
              <g id="Grupo_84736" data-name="Grupo 84736">
                <path id="Trazado_118623" data-name="Trazado 118623" d="M402.24,353.77l.2.1a.187.187,0,0,0,.094.03.2.2,0,0,0,.1,0,.2.2,0,0,0,.086-.045.207.207,0,0,0,.065-.071.255.255,0,0,0,.025-.195.25.25,0,0,0-.115-.15l-.2-.1a.18.18,0,0,0-.093-.03.185.185,0,0,0-.1,0,.19.19,0,0,0-.086.045.177.177,0,0,0-.065.071.252.252,0,0,0-.026.194.248.248,0,0,0,.115.15Z" transform="translate(-402.115 -353.301)" fill="#173449"/>
              </g>
            </g>
            <g id="Grupo_84739" data-name="Grupo 84739" transform="translate(4.837 9.11)">
              <g id="Grupo_84738" data-name="Grupo 84738">
                <path id="Trazado_118624" data-name="Trazado 118624" d="M386,355.728c.011-.026,0-.014,0,.006,0-.012.011-.025.016-.037l.032-.072c.022-.048.046-.1.07-.143.05-.1.1-.192.16-.287s.113-.179.175-.264l.046-.065.025-.031s.03-.04.01-.015l.011-.014.025-.03.057-.07a.258.258,0,0,0,0-.356.255.255,0,0,0-.356,0,4.7,4.7,0,0,0-.753,1.244.252.252,0,0,0,.025.194.252.252,0,0,0,.46-.061Z" transform="translate(-385.5 -354.278)" fill="#173449"/>
              </g>
            </g>
            <g id="Grupo_84741" data-name="Grupo 84741" transform="translate(4.703 8.701)">
              <g id="Grupo_84740" data-name="Grupo 84740">
                <path id="Trazado_118625" data-name="Trazado 118625" d="M385.86,355.137l.511-.811a.255.255,0,0,0-.089-.345.259.259,0,0,0-.345.091l-.511.812a.253.253,0,0,0,.089.344.258.258,0,0,0,.345-.091Z" transform="translate(-385.391 -353.949)" fill="#173449"/>
              </g>
            </g>
            <g id="Grupo_84743" data-name="Grupo 84743" transform="translate(4.22 14.618)">
              <g id="Grupo_84742" data-name="Grupo 84742">
                <path id="Trazado_118626" data-name="Trazado 118626" d="M385.5,359.839l.324-.806a.246.246,0,0,0-.025-.194.259.259,0,0,0-.15-.115.254.254,0,0,0-.195.025.291.291,0,0,0-.115.15l-.324.806a.255.255,0,0,0,.025.195.259.259,0,0,0,.15.115.254.254,0,0,0,.195-.026.291.291,0,0,0,.115-.15Z" transform="translate(-385.003 -358.716)" fill="#173449"/>
              </g>
            </g>
            <g id="Grupo_84745" data-name="Grupo 84745" transform="translate(5.333 15.523)">
              <g id="Grupo_84744" data-name="Grupo 84744">
                <path id="Trazado_118627" data-name="Trazado 118627" d="M386.394,360.372l.2-.609a.258.258,0,0,0-.026-.194.252.252,0,0,0-.15-.117.259.259,0,0,0-.31.176l-.2.609a.254.254,0,0,0,.025.195.252.252,0,0,0,.461-.061Z" transform="translate(-385.899 -359.445)" fill="#173449"/>
              </g>
            </g>
            <g id="Grupo_84747" data-name="Grupo 84747" transform="translate(5.331 19.382)">
              <g id="Grupo_84746" data-name="Grupo 84746">
                <path id="Trazado_118628" data-name="Trazado 118628" d="M386.393,363.485l.191-.613a.252.252,0,1,0-.487-.134l-.191.613a.252.252,0,0,0,.487.134Z" transform="translate(-385.897 -362.554)" fill="#173449"/>
              </g>
            </g>
            <g id="Grupo_84749" data-name="Grupo 84749" transform="translate(5.951 19.893)">
              <g id="Grupo_84748" data-name="Grupo 84748">
                <path id="Trazado_118629" data-name="Trazado 118629" d="M386.641,363.47a.252.252,0,0,0,0-.5.252.252,0,0,0,0,.5Z" transform="translate(-386.397 -362.966)" fill="#173449"/>
              </g>
            </g>
          </g>
          <g id="Grupo_84793" data-name="Grupo 84793" transform="translate(17.192 23.683)">
            <g id="Grupo_84762" data-name="Grupo 84762">
              <g id="Grupo_84753" data-name="Grupo 84753">
                <g id="Grupo_84751" data-name="Grupo 84751">
                  <rect id="Rectángulo_34693" data-name="Rectángulo 34693" width="27.221" height="25.52" transform="translate(0 14.114) rotate(-31.232)" fill="#fff"/>
                </g>
                <g id="Grupo_84752" data-name="Grupo 84752" transform="translate(2.087 1.913)">
                  <path id="Trazado_118630" data-name="Trazado 118630" d="M360.334,368.65l-20.342,12.335-11.806-19.012,20.342-12.335Z" transform="translate(-328.186 -349.638)" fill="#3e9b7e"/>
                </g>
              </g>
              <g id="Grupo_84755" data-name="Grupo 84755" transform="translate(9.916 23.188)">
                <g id="Grupo_84754" data-name="Grupo 84754">
                  <path id="Trazado_118631" data-name="Trazado 118631" d="M334.714,367.38l4.689,1.05c.385.086.55-.506.164-.592l-4.691-1.05c-.385-.086-.549.506-.163.592Z" transform="translate(-334.493 -366.779)" fill="#301b1b"/>
                </g>
              </g>
              <g id="Grupo_84757" data-name="Grupo 84757" transform="translate(8.633 21.039)">
                <g id="Grupo_84756" data-name="Grupo 84756">
                  <path id="Trazado_118632" data-name="Trazado 118632" d="M333.678,365.65l2.5.613c.384.094.547-.5.163-.592l-2.5-.613c-.384-.094-.547.5-.164.592Z" transform="translate(-333.46 -365.048)" fill="#301b1b"/>
                </g>
              </g>
              <g id="Grupo_84759" data-name="Grupo 84759" transform="translate(15.015 7.761)">
                <g id="Grupo_84758" data-name="Grupo 84758">
                  <path id="Trazado_118633" data-name="Trazado 118633" d="M338.823,354.948a75.313,75.313,0,0,1,10.421,2.764c.375.128.535-.465.164-.593a75.55,75.55,0,0,0-10.423-2.763c-.386-.073-.551.519-.163.592Z" transform="translate(-338.601 -354.35)" fill="#301b1b"/>
                </g>
              </g>
              <g id="Grupo_84761" data-name="Grupo 84761" transform="translate(19.076 10.38)">
                <g id="Grupo_84760" data-name="Grupo 84760">
                  <path id="Trazado_118634" data-name="Trazado 118634" d="M342.1,357.057l3.966.595a.32.32,0,0,0,.379-.215.31.31,0,0,0-.215-.379l-3.967-.593a.317.317,0,0,0-.377.215.309.309,0,0,0,.215.377Z" transform="translate(-341.873 -356.46)" fill="#301b1b"/>
                </g>
              </g>
            </g>
            <g id="Grupo_84792" data-name="Grupo 84792" transform="translate(0.513 18.909)">
              <g id="Grupo_84763" data-name="Grupo 84763">
                <path id="Trazado_118635" data-name="Trazado 118635" d="M352.744,379.881a2.865,2.865,0,0,0,.184-3.494,3.268,3.268,0,0,0-1.789-1.163c.046-.024.1-.034.141-.061,1.2-.736,1-2.713-.084-3.6a4.8,4.8,0,0,0-4.025-.622,11.045,11.045,0,0,0-6.653,4.347c-.526-1.4.135-2.94,1.009-4.149a17.544,17.544,0,0,0,2.526-3.677c.541-1.39.261-3.277-1.087-3.917-1.268-.6-2.768.176-3.789,1.139-4.293,4.055-4.352,10.725-6.31,16.3-1.919,5.458-5.895,10.378-5.948,16.163,2.523,2.826,6.02,3.294,9.648,2.206-.113.132.257-2.636.256-4,1.273.7,2.882-.354,3.535-1.653s.745-2.819,1.343-4.144a5.924,5.924,0,0,1,2.818-2.883,28.53,28.53,0,0,1,3.317-1.051,4.324,4.324,0,0,0,2.686-2.058,2.195,2.195,0,0,0-.672-2.66A2.947,2.947,0,0,0,352.744,379.881Z" transform="translate(-326.918 -363.332)" fill="#fcc0b4"/>
              </g>
              <g id="Grupo_84765" data-name="Grupo 84765" transform="translate(12.293 0.253)">
                <g id="Grupo_84764" data-name="Grupo 84764">
                  <path id="Trazado_118636" data-name="Trazado 118636" d="M336.9,364.693a2.322,2.322,0,0,0,2.084.56,3.583,3.583,0,0,0,1.966-1.277c.207-.247-.146-.6-.356-.356a3.231,3.231,0,0,1-1.637,1.125,1.818,1.818,0,0,1-1.7-.407c-.231-.227-.587.128-.355.356Z" transform="translate(-336.822 -363.535)" fill="#173449"/>
                </g>
              </g>
              <g id="Grupo_84767" data-name="Grupo 84767" transform="translate(22.081 7.513)">
                <g id="Grupo_84766" data-name="Grupo 84766">
                  <path id="Trazado_118637" data-name="Trazado 118637" d="M344.781,369.812c.04.035.038.045.038.1a1.085,1.085,0,0,1-.02.189,1.64,1.64,0,0,0-.021.534,1.49,1.49,0,0,0,.485.845,3.082,3.082,0,0,0,2.14.565.252.252,0,0,0,0-.5,2.488,2.488,0,0,1-1.863-.494.886.886,0,0,1-.269-.727c.037-.3.127-.631-.134-.859a.257.257,0,0,0-.356,0,.254.254,0,0,0,0,.356Z" transform="translate(-344.708 -369.384)" fill="#173449"/>
                </g>
              </g>
              <g id="Grupo_84769" data-name="Grupo 84769" transform="translate(23.912 11.892)">
                <g id="Grupo_84768" data-name="Grupo 84768">
                  <path id="Trazado_118638" data-name="Trazado 118638" d="M346.456,373.084a3.311,3.311,0,0,0-.269,1.323,1.829,1.829,0,0,0,.376,1,4.21,4.21,0,0,0,1.694,1.162.26.26,0,0,0,.345-.091.253.253,0,0,0-.091-.344,4.114,4.114,0,0,1-1.506-.976,1.86,1.86,0,0,1-.063-1.943c.112-.305-.375-.437-.487-.134Z" transform="translate(-346.183 -372.913)" fill="#173449"/>
                </g>
              </g>
              <g id="Grupo_84771" data-name="Grupo 84771" transform="translate(21.161 17.595)">
                <g id="Grupo_84770" data-name="Grupo 84770">
                  <path id="Trazado_118639" data-name="Trazado 118639" d="M344.214,377.579a.917.917,0,0,0,.143,1.363c.572.468,1.345.17,1.936-.093a.252.252,0,0,0,.091-.344.257.257,0,0,0-.344-.091,3.261,3.261,0,0,1-.757.256,1.091,1.091,0,0,1-.33,0,1.015,1.015,0,0,1-.122-.03c-.012,0-.068-.029-.017,0a1.109,1.109,0,0,1-.118-.068l.01.007-.032-.029a.522.522,0,0,1-.046-.045c-.015-.015-.029-.031-.042-.047.036.042-.01-.016-.016-.026a.756.756,0,0,1-.066-.12c.024.053,0-.007-.005-.016s-.015-.046-.02-.068-.011-.088-.006-.022c0-.02,0-.038,0-.058s0-.038,0-.058c0,.066,0,0,.005-.016s.03-.078,0-.02c.007-.017.019-.033.026-.051.022-.046-.027.024.006-.011l.058-.056a.254.254,0,0,0,0-.356.257.257,0,0,0-.355,0Z" transform="translate(-343.966 -377.508)" fill="#173449"/>
                </g>
              </g>
              <g id="Grupo_84773" data-name="Grupo 84773" transform="translate(13.99 11.5)">
                <g id="Grupo_84772" data-name="Grupo 84772">
                  <path id="Trazado_118640" data-name="Trazado 118640" d="M348.573,372.6a19.247,19.247,0,0,0-6.2,1.307,8.789,8.789,0,0,0-4.138,3.073c-.182.269.254.521.436.254a8.415,8.415,0,0,1,4.133-2.957,19.018,19.018,0,0,1,5.772-1.174c.323-.016.325-.52,0-.5Z" transform="translate(-338.189 -372.597)" fill="#173449"/>
                </g>
              </g>
              <g id="Grupo_84775" data-name="Grupo 84775" transform="translate(13.965 17.153)">
                <g id="Grupo_84774" data-name="Grupo 84774">
                  <path id="Trazado_118641" data-name="Trazado 118641" d="M347.468,377.168c-3.354-.168-7.256.88-9.255,3.777-.185.268.252.52.434.254,1.894-2.744,5.664-3.686,8.82-3.528.324.016.324-.488,0-.5Z" transform="translate(-338.169 -377.151)" fill="#173449"/>
                </g>
              </g>
              <g id="Grupo_84777" data-name="Grupo 84777" transform="translate(17.209 19.999)">
                <g id="Grupo_84776" data-name="Grupo 84776">
                  <path id="Trazado_118642" data-name="Trazado 118642" d="M340.791,379.764l.192.815a.254.254,0,0,0,.309.176.258.258,0,0,0,.176-.31l-.192-.815a.252.252,0,1,0-.485.134Z" transform="translate(-340.783 -379.444)" fill="#173449"/>
                </g>
              </g>
              <g id="Grupo_84779" data-name="Grupo 84779" transform="translate(18.025 20.101)">
                <g id="Grupo_84778" data-name="Grupo 84778">
                  <path id="Trazado_118643" data-name="Trazado 118643" d="M341.44,379.778v.305a.259.259,0,0,0,.074.178.182.182,0,0,0,.081.052.186.186,0,0,0,.1.022.254.254,0,0,0,.252-.252v-.305a.256.256,0,0,0-.074-.177.182.182,0,0,0-.081-.052.186.186,0,0,0-.1-.022.251.251,0,0,0-.177.074.256.256,0,0,0-.074.177Z" transform="translate(-341.44 -379.526)" fill="#173449"/>
                </g>
              </g>
              <g id="Grupo_84781" data-name="Grupo 84781" transform="translate(17.704 15.021)">
                <g id="Grupo_84780" data-name="Grupo 84780">
                  <path id="Trazado_118644" data-name="Trazado 118644" d="M341.187,375.752l.1.611a.255.255,0,0,0,.115.15.261.261,0,0,0,.195.025.255.255,0,0,0,.15-.115.283.283,0,0,0,.025-.194l-.1-.609a.253.253,0,0,0-.115-.151.257.257,0,0,0-.194-.025.251.251,0,0,0-.15.115.291.291,0,0,0-.026.194Z" transform="translate(-341.181 -375.434)" fill="#173449"/>
                </g>
              </g>
              <g id="Grupo_84783" data-name="Grupo 84783" transform="translate(18.838 14.713)">
                <g id="Grupo_84782" data-name="Grupo 84782">
                  <path id="Trazado_118645" data-name="Trazado 118645" d="M342.095,375.437v.509a.252.252,0,1,0,.5,0v-.509a.261.261,0,0,0-.073-.177.252.252,0,0,0-.431.177Z" transform="translate(-342.095 -375.185)" fill="#173449"/>
                </g>
              </g>
              <g id="Grupo_84785" data-name="Grupo 84785" transform="translate(17.003 10.651)">
                <g id="Grupo_84784" data-name="Grupo 84784">
                  <path id="Trazado_118646" data-name="Trazado 118646" d="M340.649,372.29l.305.611a.251.251,0,0,0,.345.089.255.255,0,0,0,.115-.15.271.271,0,0,0-.026-.194l-.3-.611a.262.262,0,0,0-.151-.115.253.253,0,0,0-.309.176.277.277,0,0,0,.025.194Z" transform="translate(-340.617 -371.912)" fill="#173449"/>
                </g>
              </g>
              <g id="Grupo_84787" data-name="Grupo 84787" transform="translate(18.024 9.936)">
                <g id="Grupo_84786" data-name="Grupo 84786">
                  <path id="Trazado_118647" data-name="Trazado 118647" d="M341.446,371.655l.1.509a.255.255,0,0,0,.115.15.26.26,0,0,0,.195.025.255.255,0,0,0,.15-.115.275.275,0,0,0,.025-.194l-.1-.509a.255.255,0,0,0-.115-.15.26.26,0,0,0-.195-.025.255.255,0,0,0-.15.115.275.275,0,0,0-.025.194Z" transform="translate(-341.439 -371.336)" fill="#173449"/>
                </g>
              </g>
              <g id="Grupo_84789" data-name="Grupo 84789" transform="translate(9.286 7.885)">
                <g id="Grupo_84788" data-name="Grupo 84788">
                  <path id="Trazado_118648" data-name="Trazado 118648" d="M334.584,370.176l.711.1a.28.28,0,0,0,.195-.026.25.25,0,0,0,.089-.344.238.238,0,0,0-.15-.115l-.711-.1a.279.279,0,0,0-.195.025.254.254,0,0,0-.091.345.244.244,0,0,0,.151.115Z" transform="translate(-334.399 -369.684)" fill="#173449"/>
                </g>
              </g>
              <g id="Grupo_84791" data-name="Grupo 84791" transform="translate(9.483 7.209)">
                <g id="Grupo_84790" data-name="Grupo 84790">
                  <path id="Trazado_118649" data-name="Trazado 118649" d="M334.743,369.633l.609.1a.28.28,0,0,0,.195-.026.259.259,0,0,0,.115-.15.255.255,0,0,0-.026-.195.25.25,0,0,0-.15-.115l-.609-.1a.281.281,0,0,0-.195.026.259.259,0,0,0-.115.15.252.252,0,0,0,.026.194.248.248,0,0,0,.15.117Z" transform="translate(-334.558 -369.14)" fill="#173449"/>
                </g>
              </g>
            </g>
          </g>
          <g id="Grupo_84794" data-name="Grupo 84794" transform="translate(30.463 48.458)">
            <path id="Trazado_118650" data-name="Trazado 118650" d="M398.507,381.968c.928-.936.437-2.563-.415-3.569s-2.019-1.791-2.53-3.006c-.5-1.18-.266-2.521-.314-3.8s-.571-2.749-1.8-3.1c-1.487-.425-3.044,1.38-3.77,2.746a19.521,19.521,0,0,1-14.855-1.117c-1.543-.787-3.035-1.8-4.751-2.028s-3.763.7-4.008,2.417c-.078.541.031,1.092,0,1.638-.092,1.852-1.656,3.226-2.773,4.706s-1.7,3.9-.189,4.969a1.752,1.752,0,0,0,.864-1.45c-10.557,3.48-22.131,11.9-25.525,22.485-1.822,5.682-1.271,11.816-.7,17.756l3.53,36.8c.6,6.294,1.35,12.962,5.226,17.958a23.347,23.347,0,0,0,7.75,6.135c13.229,6.935,29.293,5.435,43.742,1.648,4.617-1.21,9.4-2.764,12.682-6.227,5.16-5.439,5.165-13.765,5.885-21.227.911-9.437,3.443-18.637,4.957-28s1.967-19.176-1.183-28.117S407.853,383.571,398.507,381.968Z" transform="translate(-337.196 -368.058)" fill="#6791ce"/>
          </g>
          <g id="Grupo_84795" data-name="Grupo 84795" transform="translate(96.168 48.512)">
            <path id="Trazado_118651" data-name="Trazado 118651" d="M397.6,402.964c-.676-9.811-2.662-20.486-7.464-29.068a37.35,37.35,0,0,0,16.876-5.8,204.1,204.1,0,0,1,18.2,37.106c1.893,5.183,3.588,10.526,3.815,16.039s-1.162,11.281-4.81,15.422-9.8,6.266-14.951,4.272c-5.036-1.949-8.039-7.143-9.768-12.258C396.615,420.167,398.212,411.931,397.6,402.964Z" transform="translate(-390.132 -368.101)" fill="#6791ce"/>
          </g>
          <g id="Grupo_84796" data-name="Grupo 84796" transform="translate(0 72.12)">
            <path id="Trazado_118652" data-name="Trazado 118652" d="M360.773,439.8c-3.9,5.68-10.57,8.733-17.087,10.967-6.636,2.276-14.145,3.933-20.484.927-6.264-2.97-9.839-10-10.437-16.9s1.309-13.773,3.484-20.356c3.087-9.346,8.119-18.42,12.335-27.313a24.858,24.858,0,0,0,13.116,4.823,38.842,38.842,0,0,0,6.786,18.546c2.064,3.017,4.569,5.713,6.608,8.747A32.355,32.355,0,0,1,360.773,439.8Z" transform="translate(-312.653 -387.121)" fill="#6791ce"/>
          </g>
          <g id="Grupo_84798" data-name="Grupo 84798" transform="translate(56.017 61.001)">
            <g id="Grupo_84797" data-name="Grupo 84797">
              <path id="Trazado_118653" data-name="Trazado 118653" d="M357.914,378.624a43.426,43.426,0,0,0,20.268,4.035c.323-.015.324-.519,0-.5a42.886,42.886,0,0,1-20.013-3.966c-.292-.137-.549.3-.254.434Z" transform="translate(-357.784 -378.163)" fill="#173449"/>
            </g>
          </g>
          <g id="Grupo_84800" data-name="Grupo 84800" transform="translate(81.674 63.05)">
            <g id="Grupo_84799" data-name="Grupo 84799">
              <path id="Trazado_118654" data-name="Trazado 118654" d="M378.7,381.912a14.645,14.645,0,0,0,6.209-1.632c.288-.149.033-.583-.254-.434a14.053,14.053,0,0,1-5.954,1.563c-.323.012-.325.516,0,.5Z" transform="translate(-378.454 -379.814)" fill="#173449"/>
            </g>
          </g>
          <g id="Grupo_84802" data-name="Grupo 84802" transform="translate(60.951 54.439)">
            <g id="Grupo_84801" data-name="Grupo 84801">
              <path id="Trazado_118655" data-name="Trazado 118655" d="M361.934,373.706a60.8,60.8,0,0,0,8.64,2.13,21.476,21.476,0,0,0,3.88.5c.763-.016,1.6-.252,1.8-1.074a.262.262,0,0,0-.117-.284,12.013,12.013,0,0,0-5.636-2.1c-.323-.035-.32.469,0,.5a11.517,11.517,0,0,1,5.383,2.029l-.117-.284c-.273,1.09-2.129.65-2.9.55q-1.877-.246-3.736-.613a61.13,61.13,0,0,1-7.071-1.843c-.309-.1-.442.386-.134.485Z" transform="translate(-361.759 -372.877)" fill="#173449"/>
            </g>
          </g>
          <g id="Grupo_84804" data-name="Grupo 84804" transform="translate(80.751 56.106)">
            <g id="Grupo_84803" data-name="Grupo 84803">
              <path id="Trazado_118656" data-name="Trazado 118656" d="M378.022,375.877l4.286-1.163a.252.252,0,0,0-.134-.485l-4.285,1.163a.252.252,0,0,0,.133.485Z" transform="translate(-377.711 -374.219)" fill="#173449"/>
            </g>
          </g>
          <g id="Grupo_84806" data-name="Grupo 84806" transform="translate(101.111 66.381)">
            <g id="Grupo_84805" data-name="Grupo 84805">
              <path id="Trazado_118657" data-name="Trazado 118657" d="M394.115,382.739c1.187,11.587,2.29,23.186,3.566,34.764.892,8.1,3.182,17.826,11.929,20.715.308.1.441-.385.134-.485-9.864-3.257-11.028-14.988-11.924-23.743l-3.2-31.25c-.032-.32-.536-.323-.5,0Z" transform="translate(-394.114 -382.498)" fill="#173449"/>
            </g>
          </g>
          <g id="Grupo_84808" data-name="Grupo 84808" transform="translate(28.291 76.809)">
            <g id="Grupo_84807" data-name="Grupo 84807">
              <path id="Trazado_118658" data-name="Trazado 118658" d="M335.453,391.213q4.547,20.076,10.81,39.7c.1.308.585.176.485-.134q-6.258-19.609-10.81-39.7c-.071-.315-.557-.182-.485.134Z" transform="translate(-335.446 -390.899)" fill="#173449"/>
            </g>
          </g>
          <g id="Grupo_84810" data-name="Grupo 84810" transform="translate(35.616 104.852)">
            <g id="Grupo_84809" data-name="Grupo 84809">
              <path id="Trazado_118659" data-name="Trazado 118659" d="M341.476,413.954a16.357,16.357,0,0,1,7.482,7.269c.148.289.583.034.434-.254a16.794,16.794,0,0,0-7.662-7.449c-.29-.139-.546.294-.254.434Z" transform="translate(-341.347 -413.492)" fill="#173449"/>
            </g>
          </g>
          <g id="Grupo_84812" data-name="Grupo 84812" transform="translate(41.403 69.461)">
            <g id="Grupo_84811" data-name="Grupo 84811">
              <path id="Trazado_118660" data-name="Trazado 118660" d="M349.813,385.293a64.015,64.015,0,0,1-3.781,37.644c-.125.3.309.552.434.254A64.6,64.6,0,0,0,350.3,385.16c-.063-.318-.55-.184-.485.133Z" transform="translate(-346.01 -384.979)" fill="#173449"/>
            </g>
          </g>
          <g id="Grupo_84814" data-name="Grupo 84814" transform="translate(24.645 127.736)">
            <g id="Grupo_84813" data-name="Grupo 84813">
              <path id="Trazado_118661" data-name="Trazado 118661" d="M332.824,441.942a27.182,27.182,0,0,0,16.891-9.572c.2-.248-.15-.607-.356-.356a26.773,26.773,0,0,1-16.667,9.443c-.32.047-.184.532.133.485Z" transform="translate(-332.509 -431.928)" fill="#173449"/>
            </g>
          </g>
          <g id="Grupo_84816" data-name="Grupo 84816" transform="translate(50.552 112.16)">
            <g id="Grupo_84815" data-name="Grupo 84815">
              <path id="Trazado_118662" data-name="Trazado 118662" d="M353.624,429.1c11.9.243,21.792-7.815,33.4-9.014a23.672,23.672,0,0,1,3.89-.091c1.292.079,3.753-.014,2.861,2.5a5.81,5.81,0,0,1-1.657,1.88,42.672,42.672,0,0,1-7.077,4.528c-2.381,1.4-9.6,6.212-6.169,9.664,1.709,1.72,4.779.729,6.771.218A87.205,87.205,0,0,0,397.5,434.8c.294-.123.165-.611-.134-.487a87.59,87.59,0,0,1-10.122,3.528,27.851,27.851,0,0,1-4.868,1.125,4.893,4.893,0,0,1-2.28-.235c-2.058-.84-1.509-3.042-.6-4.486,2.862-4.557,8.861-5.959,12.792-9.34,1.07-.921,3.113-2.814,2.051-4.406-.993-1.488-4.425-1.092-5.919-1.02-5.433.259-10.588,2.255-15.591,4.229-6.17,2.434-12.446,5.024-19.2,4.888a.251.251,0,0,0,0,.5Z" transform="translate(-353.381 -419.379)" fill="#173449"/>
            </g>
          </g>
          <g id="Grupo_84818" data-name="Grupo 84818" transform="translate(99.925 94.196)">
            <g id="Grupo_84817" data-name="Grupo 84817">
              <path id="Trazado_118663" data-name="Trazado 118663" d="M399.234,418.3a27.445,27.445,0,0,1-5.587-13.209c-.043-.319-.529-.182-.485.134a27.914,27.914,0,0,0,5.716,13.431c.2.255.554-.1.356-.356Z" transform="translate(-393.159 -404.907)" fill="#173449"/>
            </g>
          </g>
        </g>
      </g>
      <g id="Grupo_84827" data-name="Grupo 84827" transform="translate(279.773 304.557)">
        <g id="Grupo_84822" data-name="Grupo 84822" transform="translate(0 93.894)">
          <g id="Grupo_84821" data-name="Grupo 84821">
            <path id="Trazado_118664" data-name="Trazado 118664" d="M275.866,400.9c1.18,1.385,3.272,1.036,4.466-.155a6.923,6.923,0,0,0,1.439-2.429c.616-1.569,1.1-3.2,1.64-4.8.475-1.408,1.768-4.051.38-5.375-1.2-1.143-3.216-.035-4.064,1.015a5.4,5.4,0,0,0,1.879,8.186c4.059,1.889,8.5-.648,10.517-4.246a19.179,19.179,0,0,0,.354-16.853.277.277,0,0,0-.433-.056,6.161,6.161,0,0,0,5.34,10.7c.35-.065.2-.6-.146-.532a5.61,5.61,0,0,1-4.8-9.775l-.434-.056a19.03,19.03,0,0,1,1.166,12.175c-.777,3.5-2.706,7.121-6.31,8.316-3.144,1.044-7.338-.168-7.7-3.914a4.921,4.921,0,0,1,1.214-3.838,3.031,3.031,0,0,1,1.758-.977c1.776-.105,1.838,1.391,1.539,2.67a63.874,63.874,0,0,1-2.227,6.659,6.031,6.031,0,0,1-1.97,3.138,2.426,2.426,0,0,1-3.212-.246c-.232-.271-.622.122-.391.391Z" transform="translate(-275.795 -376.111)" fill="#173449"/>
          </g>
        </g>
        <g id="Grupo_84824" data-name="Grupo 84824" transform="translate(145.951)">
          <g id="Grupo_84823" data-name="Grupo 84823">
            <path id="Trazado_118665" data-name="Trazado 118665" d="M393.97,307.761a6.344,6.344,0,0,1,5.142-6.7c3-.585,5.917,1.322,7.355,3.863A8.007,8.007,0,0,1,407.5,309.4a8.181,8.181,0,0,1-.536,2.444c-.329.844-.8,2.3-1.781,1.377a6.763,6.763,0,0,1-1.532-6.73c1.8-6.107,9.715-6.34,14.351-3.674a20.849,20.849,0,0,1,6.176,5.757c1.913,2.577,3.91,7.077.22,9.191a.277.277,0,0,0,.279.478c4.19-2.4,1.856-7.528-.371-10.409-2.708-3.5-6.437-6.665-10.989-7.194-3.844-.447-8.3,1.092-9.9,4.878a7.192,7.192,0,0,0,2.378,8.849.277.277,0,0,0,.335-.042,8.733,8.733,0,0,0-2.919-13.22c-4.557-2.178-10.338,1.485-9.787,6.655.037.35.591.354.552,0Z" transform="translate(-393.382 -300.465)" fill="#173449"/>
          </g>
        </g>
        <g id="Grupo_84826" data-name="Grupo 84826" transform="translate(177.558 147.061)">
          <g id="Grupo_84825" data-name="Grupo 84825">
            <path id="Trazado_118666" data-name="Trazado 118666" d="M419.789,432.351c-.417-1.811-.907-4.07.613-5.531,1.543-1.483,3-.129,4.323.817a4.971,4.971,0,0,0,5.69.022,4.452,4.452,0,0,0,1.857-5.243,5.129,5.129,0,0,0-5.059-3.459.285.285,0,0,0-.277.276c-.41,4.038-.16,8.59,2.479,11.9,2.18,2.733,5.985,4.364,9.379,3.052.328-.127.185-.662-.148-.534-3.366,1.3-7.14-.458-9.128-3.3-2.244-3.2-2.409-7.36-2.029-11.119l-.276.277a4.3,4.3,0,1,1-.84,8.351c-1.993-.566-3.458-3.271-5.762-1.892s-1.864,4.318-1.354,6.529c.079.348.613.2.532-.146Z" transform="translate(-418.846 -418.945)" fill="#173449"/>
          </g>
        </g>
      </g>
    </g>
  </g>
</svg>
